<svg width="498" height="158" viewBox="0 0 498 158" fill="none" xmlns="http://www.w3.org/2000/svg">
<path d="M84.6817 61V6.31763H88.1721V61H84.6817ZM67.4023 8.94618V5.92981H105.408V8.94618H67.4023ZM134.522 61L134.737 50.2273L134.565 49.6671V36.0073L134.608 32.7324C134.608 28.9116 133.646 26.0245 131.721 24.0711C129.796 22.1176 126.794 21.1409 122.715 21.1409C119.612 21.1409 116.811 21.6293 114.312 22.606C111.842 23.5827 109.716 24.6887 107.935 25.924L108.322 22.7353C109.27 22.0458 110.448 21.3564 111.856 20.6669C113.292 19.9487 114.944 19.3598 116.811 18.9002C118.679 18.4405 120.776 18.2107 123.103 18.2107C125.688 18.2107 127.914 18.5411 129.782 19.2018C131.678 19.8625 133.229 20.8249 134.436 22.0889C135.642 23.3242 136.533 24.8324 137.107 26.6135C137.682 28.3945 137.969 30.4198 137.969 32.6893V61H134.522ZM119.569 61.8618C115.404 61.8618 112.186 60.8851 109.917 58.9316C107.676 56.9495 106.556 54.0767 106.556 50.3135V49.2362C106.556 45.7315 107.647 43.0598 109.831 41.2213C112.014 39.354 115.605 38.0613 120.603 37.3431L135.384 35.1455L135.556 37.8171L121.077 39.9285C117.142 40.5031 114.298 41.4942 112.545 42.9018C110.822 44.3095 109.96 46.3635 109.96 49.0638V49.9687C109.96 52.8989 110.85 55.1253 112.632 56.6478C114.413 58.1704 117.012 58.9316 120.431 58.9316C123.218 58.9316 125.602 58.4145 127.584 57.3804C129.595 56.3175 131.204 54.8955 132.41 53.1144C133.646 51.3045 134.45 49.2793 134.823 47.0385L135.728 49.7102H134.953C134.665 51.836 133.918 53.8325 132.712 55.6998C131.505 57.5384 129.81 59.0322 127.627 60.1813C125.444 61.3016 122.758 61.8618 119.569 61.8618ZM20.5975 128L2.844 72.9298H6.50673L23.1829 125.242H24.2171L40.8502 72.9298H44.556L26.8456 128H20.5975ZM53.5357 86.0725V112.617C53.5357 115.374 53.9092 117.744 54.6561 119.727C55.403 121.709 56.6239 123.246 58.3188 124.337C60.0137 125.4 62.2832 125.932 65.1272 125.932C67.7701 125.932 70.0539 125.415 71.9787 124.38C73.9321 123.346 75.4977 121.939 76.6756 120.157C77.8821 118.348 78.6721 116.294 79.0456 113.995L79.9936 116.753H79.1317C78.8157 118.908 78.0545 120.919 76.8479 122.786C75.6414 124.625 73.9752 126.104 71.8494 127.224C69.7523 128.316 67.1956 128.862 64.1792 128.862C60.7894 128.862 58.0603 128.23 55.9919 126.966C53.9236 125.673 52.4297 123.849 51.5105 121.493C50.5912 119.109 50.1316 116.251 50.1316 112.918V86.0725H53.5357ZM82.1481 86.0725V128H78.7439L78.9594 117.357L78.7439 117.184V86.0725H82.1481ZM110.942 128.862C105.311 128.862 100.988 127.397 97.9712 124.467C94.9549 121.508 93.4467 117.313 93.4467 111.884V102.964C93.4467 97.1613 94.84 92.7229 97.6265 89.6491C100.413 86.5753 104.478 85.0384 109.821 85.0384C113.383 85.0384 116.371 85.7422 118.784 87.1498C121.226 88.5287 123.065 90.5253 124.3 93.1395C125.564 95.7249 126.196 98.8562 126.196 102.533V104.041C126.196 104.76 126.181 105.492 126.153 106.239C126.124 106.957 126.067 107.733 125.98 108.566H122.835C122.863 107.417 122.878 106.34 122.878 105.334C122.878 104.3 122.878 103.352 122.878 102.49C122.878 99.3589 122.375 96.716 121.37 94.5615C120.393 92.4069 118.928 90.7695 116.974 89.6491C115.05 88.5 112.665 87.9254 109.821 87.9254C105.57 87.9254 102.338 89.1894 100.126 91.7174C97.9138 94.2455 96.8078 97.9225 96.8078 102.749V106.885V107.403V112.099C96.8078 114.254 97.1238 116.179 97.7558 117.874C98.3878 119.569 99.307 121.019 100.514 122.226C101.749 123.404 103.271 124.309 105.081 124.941C106.891 125.573 108.988 125.889 111.373 125.889C114.073 125.889 116.587 125.486 118.913 124.682C121.24 123.878 123.424 122.729 125.463 121.235L125.075 124.553C123.323 125.874 121.24 126.923 118.827 127.698C116.443 128.474 113.814 128.862 110.942 128.862ZM95.1703 108.566V105.808H125.119V108.566H95.1703Z" fill="white"/>
<circle cx="256.75" cy="75.4091" r="70.4716" stroke="white" stroke-width="2.69318"/>
<circle cx="425.523" cy="75.4091" r="70.4716" stroke="white" stroke-width="2.69318"/>
<path d="M326.773 68.2274C331.261 62.841 343.291 55.3001 355.5 68.2274" stroke="white" stroke-width="2.69318"/>
<mask id="path-5-inside-1_8_64" fill="white">
<path d="M196.123 58.8745C200.328 43.4591 210.246 30.2241 223.862 21.8616C237.477 13.4992 253.766 10.6373 269.417 13.8581L256.75 75.4091L196.123 58.8745Z"/>
</mask>
<path d="M196.123 58.8745C200.328 43.4591 210.246 30.2241 223.862 21.8616C237.477 13.4992 253.766 10.6373 269.417 13.8581L256.75 75.4091L196.123 58.8745Z" stroke="white" stroke-width="5.38636" mask="url(#path-5-inside-1_8_64)"/>
<mask id="path-6-inside-2_8_64" fill="white">
<path d="M364.896 58.8745C361.581 71.0287 361.996 83.8987 366.087 95.8142C370.178 107.73 377.756 118.141 387.837 125.696C397.918 133.251 410.038 137.602 422.622 138.183C435.207 138.764 447.676 135.55 458.411 128.957C469.146 122.363 477.652 112.695 482.824 101.208C487.996 89.7202 489.596 76.9433 487.416 64.5352C485.236 52.127 479.377 40.6606 470.599 31.6239C461.821 22.5872 450.529 16.3975 438.19 13.8581L425.523 75.4091L364.896 58.8745Z"/>
</mask>
<path d="M364.896 58.8745C361.581 71.0287 361.996 83.8987 366.087 95.8142C370.178 107.73 377.756 118.141 387.837 125.696C397.918 133.251 410.038 137.602 422.622 138.183C435.207 138.764 447.676 135.55 458.411 128.957C469.146 122.363 477.652 112.695 482.824 101.208C487.996 89.7202 489.596 76.9433 487.416 64.5352C485.236 52.127 479.377 40.6606 470.599 31.6239C461.821 22.5872 450.529 16.3975 438.19 13.8581L425.523 75.4091L364.896 58.8745Z" stroke="white" stroke-width="5.38636" mask="url(#path-6-inside-2_8_64)"/>
</svg>
